<svg width="16" height="16" viewBox="0 0 16 16" fill="none" xmlns="http://www.w3.org/2000/svg">
<path d="M14.25 0.5H1.75C1.05964 0.5 0.5 1.05964 0.5 1.75V2.5V12.5C0.5 14.1569 1.84315 15.5 3.5 15.5H10.5C13.2614 15.5 15.5 13.2614 15.5 10.5V2.5V1.75C15.5 1.05964 14.9404 0.5 14.25 0.5Z" fill="#808080" stroke="#808080" style="fill:#808080;fill:color(display-p3 0.5000 0.5000 0.5000);fill-opacity:1;stroke:#808080;stroke:color(display-p3 0.5000 0.5000 0.5000);stroke-opacity:1;" stroke-linecap="square"/>
<rect x="1" y="1" width="2" height="2" rx="1" fill="#EB5757" style="fill:#EB5757;fill:color(display-p3 0.9216 0.3412 0.3412);fill-opacity:1;"/>
<rect x="4" y="1" width="2" height="2" rx="1" fill="#FDC700" style="fill:#FDC700;fill:color(display-p3 0.9922 0.7804 0.0000);fill-opacity:1;"/>
<rect x="7" y="1" width="2" height="2" rx="1" fill="#00C950" style="fill:#00C950;fill:color(display-p3 0.0000 0.7882 0.3137);fill-opacity:1;"/>
<path d="M1 5C1 4.44771 1.44772 4 2 4H14C14.5523 4 15 4.44772 15 5V10C15 12.7614 12.7614 15 10 15H4C2.34315 15 1 13.6569 1 12V5Z" fill="white" style="fill:white;fill-opacity:1;"/>
<path d="M11 11C11 12.6569 9.65685 14 8 14C6.34315 14 5 12.6569 5 11H11Z" fill="#808080" style="fill:#808080;fill:color(display-p3 0.5000 0.5000 0.5000);fill-opacity:1;"/>
<path d="M8.25 5.75L8.18837 5.82191C7.76694 6.31357 7.66158 7.00201 7.91666 7.59721V7.59721C8.12659 8.08705 8.09457 8.647 7.83016 9.10971L7.75 9.25" stroke="#808080" style="stroke:#808080;stroke:color(display-p3 0.5000 0.5000 0.5000);stroke-opacity:1;" stroke-width="1.5" stroke-linecap="round"/>
<path d="M12.25 5.75L12.1559 5.85983C11.7625 6.3187 11.7002 6.97527 12 7.5V7.5C12.2998 8.02473 12.2375 8.6813 11.8441 9.14017L11.75 9.25" stroke="#808080" style="stroke:#808080;stroke:color(display-p3 0.5000 0.5000 0.5000);stroke-opacity:1;" stroke-width="1.5" stroke-linecap="round"/>
</svg>
