<svg width="84" height="36" viewBox="0 0 84 36" fill="none" xmlns="http://www.w3.org/2000/svg">
<path d="M21.6123 16.0107C26.2515 16.011 28.7196 19.8588 28.7197 23.8174H17.749C18.0167 26.0495 19.5452 27.3973 21.6641 27.3975H21.666C23.142 27.3973 24.5644 26.6425 25.126 25.377H28.5332C27.8089 28.6087 24.9671 30.6288 21.666 30.6289C17.4818 30.6289 14.3956 27.479 14.3955 23.2227C14.3955 19.2151 17.5343 16.0107 21.6123 16.0107ZM49.1016 16.0107C53.7437 16.0107 56.2118 19.8587 56.2119 23.8174H45.2393C45.5082 26.0496 47.0365 27.3975 49.1582 27.3975H49.1592C50.6313 27.3975 52.0549 26.6425 52.6191 25.377H56.0234C55.2992 28.6088 52.4568 30.6289 49.1582 30.6289C44.974 30.6289 41.8878 27.479 41.8877 23.2227C41.8877 19.2152 45.0263 16.0109 49.1016 16.0107ZM82.1777 27.9521C82.3391 27.9522 82.4886 27.9821 82.6289 28.0439C82.7693 28.1058 82.8931 28.1886 82.998 28.2939C83.1029 28.3993 83.1867 28.5232 83.2471 28.6641C83.3087 28.805 83.3389 28.9565 83.3389 29.1172C83.3389 29.2779 83.3087 29.4294 83.2471 29.5703C83.1854 29.7112 83.1029 29.8351 82.998 29.9404C82.8931 30.0458 82.7693 30.1298 82.6289 30.1904C82.4886 30.2523 82.3378 30.2822 82.1777 30.2822C82.0178 30.2822 81.8669 30.2522 81.7266 30.1904C81.5862 30.1285 81.4624 30.0458 81.3574 29.9404C81.2525 29.8351 81.1687 29.7112 81.1084 29.5703C81.0467 29.4294 81.0166 29.2792 81.0166 29.1172C81.0166 28.9565 81.0467 28.805 81.1084 28.6641C81.1701 28.5232 81.2525 28.3993 81.3574 28.2939C81.4624 28.1886 81.5862 28.1058 81.7266 28.0439C81.8669 27.9821 82.0164 27.9521 82.1777 27.9521ZM34.7529 27.0469H35.7988L37.9727 16.3867H41.8604L38.457 30.2266H32.126L28.7188 16.3867H32.5811L34.7529 27.0469ZM61.6025 17.7734C62.7663 16.9623 64.179 16.4894 65.7021 16.4893C65.8307 16.4893 65.9584 16.4915 66.083 16.498V19.4678C65.9926 19.4612 65.8957 19.459 65.8027 19.459C63.5027 19.459 61.6408 21.3286 61.6406 23.6357L61.6025 30.2246H57.7666V16.3867H61.6025V17.7734ZM74.0566 13.0117H72.6621C71.9379 13.0117 71.5079 13.3966 71.5078 14.2051L71.5088 14.207V16.3857H74.0586V19.4268H71.5088V30.2246H67.6738V14.0713C67.6738 11.5941 69.1496 10.0303 72.2881 10.0303H74.0566V13.0117ZM79.417 30.2246H75.582V16.3867H79.417V30.2246ZM82.1777 28.1582C82.0467 28.1582 81.9233 28.1835 81.8066 28.2334C81.69 28.2834 81.5885 28.3517 81.502 28.4385C81.4154 28.5254 81.3467 28.627 81.2969 28.7441C81.247 28.8614 81.2227 28.9855 81.2227 29.1172C81.2227 29.2489 81.247 29.373 81.2969 29.4902C81.3467 29.6074 81.4154 29.709 81.502 29.7959C81.5885 29.8827 81.69 29.951 81.8066 30.001C81.9233 30.0509 82.0467 30.0762 82.1777 30.0762C82.3088 30.0762 82.4321 30.051 82.5488 30.001C82.6655 29.951 82.7669 29.8827 82.8535 29.7959C82.94 29.7091 83.0078 29.6073 83.0576 29.4902C83.1075 29.373 83.1328 29.2489 83.1328 29.1172C83.1328 28.9855 83.1075 28.8614 83.0576 28.7441C83.0078 28.6271 82.94 28.5253 82.8535 28.4385C82.7669 28.3516 82.6656 28.2834 82.5488 28.2334C82.4321 28.1834 82.3088 28.1582 82.1777 28.1582ZM81.7305 28.4443H82.2422C82.4019 28.4444 82.5196 28.4786 82.5957 28.5469C82.6718 28.6154 82.71 28.7157 82.71 28.8447C82.7099 28.9619 82.6801 29.0492 82.6211 29.1084C82.5608 29.1662 82.4859 29.2004 82.3955 29.2109L82.7383 29.7744H82.4824L82.1514 29.2295H81.9727V29.7744H81.7285V28.4434L81.7305 28.4443ZM81.9746 29.0234H82.1523C82.1904 29.0234 82.2276 29.0225 82.2656 29.0186C82.3034 29.0159 82.3362 29.0082 82.3662 28.9951C82.3964 28.982 82.4221 28.9635 82.4404 28.9385C82.4588 28.9135 82.4678 28.8784 82.4678 28.835C82.4677 28.7917 82.4587 28.7574 82.4404 28.7324C82.4221 28.7074 82.3964 28.689 82.3662 28.6758C82.3362 28.6627 82.3022 28.656 82.2656 28.6533C82.2289 28.6507 82.1904 28.6514 82.1523 28.6514H81.9746V29.0234ZM21.6377 19.1055C19.8667 19.1056 18.472 20.0761 17.9629 21.6641H25.043C24.6165 20.0761 23.4081 19.1055 21.6396 19.1055H21.6377ZM49.1309 19.1055C47.3622 19.1055 45.9669 20.076 45.4551 21.6641H52.5381C52.1076 20.0761 50.8993 19.1055 49.1309 19.1055ZM79.417 13.0146H75.582V10.0332H79.417V13.0146Z" fill="light-dark(#272763, #ffffff)"/>
<path d="M8.82537 17.1961C8.82537 16.4968 8.25984 15.9305 7.56311 15.9319H4.89691L2.2307 15.9358C1.53397 15.9358 0.96976 16.5034 0.971072 17.2027V19.8788L0.975008 22.5549C0.975008 23.2542 1.54053 23.8205 2.23726 23.8192H4.90347L7.56967 23.8152C8.26641 23.8152 8.83061 23.2476 8.8293 22.5483V19.8722L8.82537 17.1961ZM14.558 8.79918C13.6644 8.27634 10.005 7.11478 9.23474 8.44096C8.71383 9.33782 7.55655 13.0108 8.87785 13.7839C9.7714 14.3067 13.4309 15.4683 14.2011 14.1421C14.722 13.2453 15.8793 9.57223 14.558 8.79918ZM22.4621 6.28509C22.079 5.62661 21.4466 5.11562 20.6554 4.90623C19.8641 4.69683 19.0611 4.82984 18.4051 5.21308C17.749 5.59763 17.2399 6.23241 17.0313 7.02654C16.8227 7.82199 16.9552 8.62665 17.337 9.28514C17.7188 9.94362 18.3526 10.4546 19.1438 10.664C19.9363 10.8734 20.738 10.7404 21.3941 10.3571C22.0501 9.97391 22.5592 9.33781 22.7679 8.54368C22.9765 7.74824 22.844 6.94357 22.4621 6.28509Z" fill="url(#paint0_linear_466_351)"/>
<defs>
<linearGradient id="paint0_linear_466_351" x1="-2.64904" y1="26.7968" x2="32.9419" y2="-6.63746" gradientUnits="userSpaceOnUse">
<stop offset="0.1" stop-color="#19A5CA"/>
<stop offset="0.19" stop-color="#2AAABD"/>
<stop offset="0.37" stop-color="#56B99B"/>
<stop offset="0.62" stop-color="#9ED166"/>
<stop offset="0.7" stop-color="#B9DA53"/>
</linearGradient>
</defs>
</svg>
