<svg width="40" height="40" viewBox="0 0 40 40" fill="none" xmlns="http://www.w3.org/2000/svg">
<path fill-rule="evenodd" clip-rule="evenodd" d="M30 16.5C31.1046 16.5 32 15.6046 32 14.5V12.5C32 11.3954 31.1046 10.5 30 10.5H28V6.32843C28 4.54662 25.8457 3.65429 24.5858 4.91422L19.4142 10.0858C19.2845 10.2155 19.1776 10.3547 19.0922 10.5H10C8.89543 10.5 8 11.3954 8 12.5V14.5C8 15.6046 8.89543 16.5 10 16.5H30Z" fill="#F37237"/>
<path fill-rule="evenodd" clip-rule="evenodd" d="M10 18.5C8.89543 18.5 8 19.3954 8 20.5V28.5C8 29.6046 8.89543 30.5 10 30.5H12V33.6716C12 35.4534 14.1543 36.3457 15.4142 35.0858L20 30.5H30C31.1046 30.5 32 29.6046 32 28.5V20.5C32 19.3954 31.1046 18.5 30 18.5H10Z" fill="#28DCCC"/>
</svg>
