<svg width="40" height="32" viewBox="0 0 40 32" fill="none" xmlns="http://www.w3.org/2000/svg">
<g clip-path="url(#clip0_8170_86)">
<path d="M16.05 27.8599C22.8125 26.8662 28 21.0474 28 14.0099C28 10.1662 26.45 6.69116 23.95 4.15991C17.1875 5.15366 12 10.9724 12 18.0099C12 21.8537 13.55 25.3287 16.05 27.8599Z" fill="#0D7978"/>
<path d="M25.9998 4C25.3017 4 24.6222 4.04973 23.9552 4.1492C25.059 5.27297 25.9822 6.57733 26.6623 8.01875C31.8748 8.3625 35.9998 12.7 35.9998 18C35.9998 23.525 31.5248 28 25.9998 28C23.9873 28 22.1123 27.4062 20.5373 26.3813C19.1623 27.1062 17.6498 27.6125 16.0498 27.85C18.5873 30.4125 22.1061 32 25.9998 32C33.7311 32 39.9998 25.7312 39.9998 18C39.9998 10.2687 33.7311 4 25.9998 4Z" fill="url(#paint0_linear_8170_86)"/>
<path d="M16.05 27.8562C14.9437 26.7312 14.0188 25.425 13.3375 23.9812C8.125 23.6375 4 19.3 4 14C4 8.475 8.475 4 14 4C16.0125 4 17.8875 4.59375 19.4625 5.6125C20.836 4.88832 22.3466 4.38239 23.9446 4.14455C21.4075 1.58525 17.891 0 14 0C6.26875 0 0 6.26875 0 14C0 21.7312 6.26875 28 14 28.0062C14.6938 28.0062 15.3812 27.9562 16.05 27.8562Z" fill="url(#paint1_linear_8170_86)"/>
</g>
<defs>
<linearGradient id="paint0_linear_8170_86" x1="24.0398" y1="4" x2="39.9998" y2="32" gradientUnits="userSpaceOnUse">
<stop stop-color="#0D7978"/>
<stop offset="1" stop-color="#0D7978" stop-opacity="0"/>
</linearGradient>
<linearGradient id="paint1_linear_8170_86" x1="0" y1="0" x2="14.52" y2="22.8" gradientUnits="userSpaceOnUse">
<stop stop-color="#0D7978" stop-opacity="0"/>
<stop offset="1" stop-color="#0D7978"/>
</linearGradient>
<clipPath id="clip0_8170_86">
<rect width="40" height="32" fill="white"/>
</clipPath>
</defs>
</svg>
