<svg width="40" height="40" viewBox="0 0 40 40" fill="none" xmlns="http://www.w3.org/2000/svg">
<g clip-path="url(#clip0_224_20809)">
<path d="M13 27.914H21.3668C23.4456 27.914 24.4867 30.4273 23.0168 31.8972L16.9832 37.9307C15.5133 39.4007 13 38.3596 13 36.2808V27.914Z" fill="#0050D8"/>
<rect x="6" y="16.2473" width="28" height="16.3333" rx="2.33333" fill="#0050D8"/>
<path d="M28.8893 7.08603C28.8893 8.37469 27.8446 9.41936 26.5559 9.41936H22.3725C21.3331 9.41936 20.8126 8.16269 21.5476 7.42773L26.8977 2.07765C27.6326 1.34269 28.8893 1.86322 28.8893 2.90261V7.08603Z" fill="#D83A33"/>
<path d="M21.1666 8.30194C21.1666 7.6576 21.689 7.13527 22.3333 7.13527H31.6666C32.311 7.13527 32.8333 7.6576 32.8333 8.30194V12.9686C32.8333 13.6129 32.311 14.1353 31.6666 14.1353H22.3333C21.689 14.1353 21.1666 13.6129 21.1666 12.9686V8.30194Z" fill="#D83A33"/>
</g>
<defs>
<clipPath id="clip0_224_20809">
<rect width="40" height="40" fill="white"/>
</clipPath>
</defs>
</svg>
