<svg width="16" height="16" viewBox="0 0 16 16" fill="none" xmlns="http://www.w3.org/2000/svg">
<g clip-path="url(#clip0_284_61933)">
<path fill-rule="evenodd" clip-rule="evenodd" d="M15.5 8C15.5 12.1421 12.1421 15.5 8 15.5C3.85786 15.5 0.5 12.1421 0.5 8C0.5 3.85786 3.85786 0.5 8 0.5C12.1421 0.5 15.5 3.85786 15.5 8ZM6.21654 9.11188C6.41837 8.78946 6.53503 8.40837 6.53503 8.00008C6.53503 7.59174 6.41835 7.21063 6.21649 6.88818C6.01462 7.21063 5.89795 7.59174 5.89795 8.00008C5.89795 8.4083 6.01456 8.78931 6.21632 9.1117C5.84483 9.70515 5.18479 10.0999 4.43244 10.0999C3.27134 10.0999 2.33008 9.1597 2.33008 7.9999C2.33008 6.8401 3.27134 5.8999 4.43244 5.8999C5.18482 5.8999 5.8449 6.29469 6.21637 6.88819C6.58785 6.29469 7.24792 5.8999 8.00031 5.8999C8.75237 5.8999 9.41219 6.29434 9.78376 6.88742C10.1553 6.29434 10.8151 5.8999 11.5672 5.8999C12.7283 5.8999 13.6696 6.8401 13.6696 7.9999C13.6696 9.1597 12.7283 10.0999 11.5672 10.0999C10.8151 10.0999 10.1553 9.70546 9.78376 9.11239C9.41219 9.70546 8.75237 10.0999 8.00031 10.0999C7.24804 10.0999 6.58805 9.70524 6.21654 9.11188ZM9.78387 6.88818C9.98574 7.21063 10.1024 7.59174 10.1024 8.00008C10.1024 8.40841 9.98574 8.78953 9.78387 9.11197C9.58201 8.78953 9.46533 8.40841 9.46533 8.00008C9.46533 7.59174 9.58201 7.21063 9.78387 6.88818Z" fill="#202830"/>
</g>
<defs>
<clipPath id="clip0_284_61933">
<rect width="15" height="15" fill="white" transform="translate(0.5 0.5)"/>
</clipPath>
</defs>
</svg>
