<svg width="41" height="40" viewBox="0 0 41 40" fill="none" xmlns="http://www.w3.org/2000/svg">
<g clip-path="url(#clip0_4_4576)">
<path fill-rule="evenodd" clip-rule="evenodd" d="M5.66724 35.7023H6.95113V23.6023H5.66724V35.7023ZM12.2004 35.8846C10.5997 35.8846 8.98231 34.973 8.98231 33.216V33.1829C8.98231 31.3761 10.483 30.4148 12.6672 30.4148C13.7677 30.4148 14.5514 30.564 15.3184 30.7794V30.4811C15.3184 28.9396 14.368 28.1439 12.7506 28.1439C11.7335 28.1439 10.9332 28.4092 10.1328 28.7738L9.74931 27.7296C10.6997 27.2986 11.6335 27.0168 12.884 27.0168C14.1012 27.0168 15.0349 27.3318 15.6686 27.9616C16.2521 28.5418 16.5523 29.3705 16.5523 30.4645V35.7023H15.3184V34.4094C14.7181 35.1885 13.7177 35.8846 12.2004 35.8846ZM12.4505 34.8735C14.0345 34.8735 15.3351 33.9122 15.3351 32.553V31.7242C14.7015 31.5419 13.8511 31.3596 12.8006 31.3596C11.1833 31.3596 10.2829 32.0557 10.2829 33.1331V33.1663C10.2829 34.2437 11.2833 34.8735 12.4505 34.8735ZM23.569 35.8846C21.9683 35.8846 20.9345 35.0227 20.2675 34.0614V35.7023H18.9836V23.6023H20.2675V28.8567C20.9678 27.829 21.9849 26.9505 23.569 26.9505C25.6365 26.9505 27.6874 28.5749 27.6874 31.3927V31.4259C27.6874 34.2271 25.6532 35.8846 23.569 35.8846ZM23.3355 34.7409C25.0029 34.7409 26.3702 33.5144 26.3702 31.4424V31.4093C26.3702 29.3871 24.9696 28.0942 23.3355 28.0942C21.7348 28.0942 20.2175 29.4368 20.2175 31.3927V31.4259C20.2175 33.4149 21.7348 34.7409 23.3355 34.7409ZM32.6032 35.8681C34.3206 35.8681 35.6712 34.9233 35.6712 33.2989V33.2657C35.6712 31.7242 34.2372 31.2104 32.9033 30.8126C31.7528 30.4645 30.6857 30.1496 30.6857 29.3374V29.3042C30.6857 28.5915 31.336 28.0611 32.3531 28.0611C33.1868 28.0611 34.1038 28.376 34.9042 28.8898L35.4878 27.9285C34.6041 27.3483 33.4369 26.9837 32.3864 26.9837C30.6857 26.9837 29.4518 27.9616 29.4518 29.4368V29.47C29.4518 31.0446 30.9525 31.5087 32.3031 31.89C33.4369 32.2049 34.454 32.5364 34.454 33.3983V33.4315C34.454 34.2603 33.7037 34.7907 32.6699 34.7907C31.6528 34.7907 30.619 34.3929 29.6853 33.6967L29.035 34.6083C30.0021 35.3874 31.3693 35.8681 32.6032 35.8681Z" fill="black"/>
<path fill-rule="evenodd" clip-rule="evenodd" d="M0.666748 18.3921H13.9995V5H0.666748V18.3921Z" fill="#F05A4E"/>
<path fill-rule="evenodd" clip-rule="evenodd" d="M13.9995 18.3921H27.3335V5H13.9995V18.3921Z" fill="#000116"/>
<path fill-rule="evenodd" clip-rule="evenodd" d="M27.3335 18.3921H40.6668V5H27.3335V18.3921Z" fill="#4A8ECB"/>
<path fill-rule="evenodd" clip-rule="evenodd" d="M8.78634 15.0345V11.1319C8.78634 10.5561 8.67465 10.1356 8.45077 9.87096C8.22678 9.60593 7.86181 9.47366 7.35441 9.47366C7.11966 9.47366 6.86935 9.53873 6.60273 9.66906C6.33684 9.7996 6.12853 9.96131 5.97955 10.1547V15.0345H4.38501V8.25464H5.53476L5.82831 8.88684C6.26235 8.38965 6.90357 8.14075 7.75125 8.14075C8.56358 8.14075 9.20542 8.38163 9.67613 8.864C10.1467 9.34637 10.3821 10.0194 10.3821 10.883V15.0345H8.78634Z" fill="white"/>
<path fill-rule="evenodd" clip-rule="evenodd" d="M20.5844 15.1679C21.6279 15.1679 22.451 14.8684 23.0538 14.2694C23.6571 13.6705 23.9579 12.8167 23.9579 11.7077C23.9579 9.32948 22.8676 8.1405 20.6864 8.1405C20.1029 8.1405 19.6112 8.33032 19.2101 8.71007V8.2545H17.615V17.6814H19.2101V14.8698C19.6232 15.0685 20.0813 15.1679 20.5844 15.1679M20.2283 9.4925C20.9632 9.4925 21.4898 9.65573 21.8085 9.98167C22.1268 10.3076 22.2853 10.8703 22.2853 11.6697C22.2853 12.4188 22.1255 12.9665 21.8043 13.3139C21.4843 13.6607 20.9573 13.8343 20.2224 13.8343C19.8363 13.8343 19.4989 13.7187 19.2101 13.4873V9.93406C19.5073 9.63999 19.8465 9.4925 20.2283 9.4925" fill="white"/>
<path fill-rule="evenodd" clip-rule="evenodd" d="M35.8263 9.73988C35.5424 9.56234 35.232 9.47341 34.8934 9.47341C34.5241 9.47341 34.197 9.63969 33.9117 9.97152C33.6248 10.3038 33.4825 10.7091 33.4825 11.1882V15.0343H31.8867V8.2544H33.4825V8.90212C33.9268 8.39448 34.5181 8.1405 35.2554 8.1405C35.7976 8.1405 36.2124 8.22262 36.5006 8.38676L35.8263 9.73988Z" fill="white"/>
</g>
<defs>
<clipPath id="clip0_4_4576">
<rect width="40" height="40" fill="white" transform="translate(0.666748)"/>
</clipPath>
</defs>
</svg>
