<svg width="1381" height="1353" viewBox="0 0 1381 1353" fill="none" xmlns="http://www.w3.org/2000/svg">
<g filter="url(#filter0_f_116_61913)">
<g opacity="0.6">
<g style="mix-blend-mode:hard-light">
<path fill-rule="evenodd" clip-rule="evenodd" d="M615.32 554.513C559.676 543.72 505.774 633.241 455.512 604.567C417.176 582.698 436.541 506.39 456.099 463.681C474.013 424.56 518.048 413.254 552.719 392.287C571.992 380.632 594.342 380.286 613.536 368.472C635.206 355.133 646.637 321.01 671.353 319.266C695.851 317.537 711.331 348.327 733.522 360.005C766.735 377.484 811.895 371.87 833.754 404.728C856.018 438.196 854.402 486.451 844.312 526.547C834.163 566.88 809.867 602.57 778.251 625.301C748.554 646.652 709.177 661.693 676.242 647.384C643.493 633.156 649.955 561.232 615.32 554.513Z" fill="#FDB732"/>
</g>
<g style="mix-blend-mode:hard-light">
<path fill-rule="evenodd" clip-rule="evenodd" d="M552.391 723.876C518.978 691.682 533.895 630.538 529.333 581.622C526.057 546.498 529.787 513.141 529.446 477.831C529.006 432.445 498.019 376.35 527.037 344.449C556.523 312.035 607.596 342.142 648.856 346.562C676.64 349.538 701.089 366.207 729.002 366.082C776.92 365.866 829.58 314.68 868.634 345.574C903.766 373.366 895.373 440.909 880.502 485.927C867.106 526.475 818.827 535.776 794.637 569.569C777.594 593.376 779.411 627.82 762.074 651.363C739.088 682.576 713.966 714.168 679.333 726.145C638.085 740.409 585.044 755.336 552.391 723.876Z" fill="#18519F"/>
</g>
<g style="mix-blend-mode:hard-light">
<path fill-rule="evenodd" clip-rule="evenodd" d="M570.129 810.795C538.981 740.56 474.599 681.041 487.886 604.129C501.588 524.811 569.464 473.433 634.577 437.725C694.926 404.63 762.834 398.614 827.9 417.666C893.139 436.769 946.643 481.724 987.837 541.165C1036.86 611.902 1091.37 690.516 1078.03 778.599C1063.98 871.41 993.538 938.614 920.489 986.07C847.206 1033.68 757.347 1075.93 679.95 1037.21C606.869 1000.65 605.586 890.746 570.129 810.795Z" fill="#80DBFF"/>
</g>
<g style="mix-blend-mode:hard-light">
<path fill-rule="evenodd" clip-rule="evenodd" d="M467.188 300.619C573.805 295.979 654.06 410.005 673.43 526.791C687.577 612.092 599.464 656.652 534.062 703.825C483.976 739.95 426.143 777.035 375.697 741.537C315.909 699.465 289.33 619.523 305.248 542.812C327.742 434.407 367.304 304.965 467.188 300.619Z" fill="#FC955A"/>
</g>
<g style="mix-blend-mode:hard-light">
<path fill-rule="evenodd" clip-rule="evenodd" d="M757.66 807.488C756.198 852.95 702.23 871.501 677.724 907.916C652.194 945.853 650.503 1009.5 610.584 1026.03C570.511 1042.63 528.843 1005.16 489.796 985.765C458.923 970.434 429.123 952.725 406.556 924.715C386.009 899.212 377.26 866.062 367.257 833.671C357.627 802.491 356.086 770.608 349.072 738.575C337.483 685.653 297.582 635.125 312.413 583.214C326.665 533.328 373.945 484.421 420.932 487.044C473.918 490.002 495.038 570.578 542.885 596.078C571.971 611.579 610.525 583.488 637.806 602.625C665.24 621.869 666.861 665.213 684.554 695.454C707.573 734.801 759.168 760.568 757.66 807.488Z" fill="#33C276"/>
</g>
<g style="mix-blend-mode:hard-light">
<path fill-rule="evenodd" clip-rule="evenodd" d="M879.914 567.967C917.259 567.332 952.626 586.755 975.934 619.227C999.262 651.728 1000.51 693.262 999.695 734.845C998.451 798.355 1015.84 874.849 970.181 912.983C920.051 954.847 836.932 956.757 791.493 908.718C749.817 864.657 794.527 790.296 793.637 726.337C793.128 689.824 770.495 653.661 787.507 622.433C806.517 587.538 843.245 568.591 879.914 567.967Z" fill="#4D38B2"/>
</g>
</g>
</g>
<defs>
<filter id="filter0_f_116_61913" x="-246.5" y="-253.253" width="1800" height="1800" filterUnits="userSpaceOnUse" color-interpolation-filters="sRGB">
<feFlood flood-opacity="0" result="BackgroundImageFix"/>
<feBlend mode="normal" in="SourceGraphic" in2="BackgroundImageFix" result="shape"/>
<feGaussianBlur stdDeviation="150" result="effect1_foregroundBlur_116_61913"/>
</filter>
</defs>
</svg>
