<svg width="960" height="960" viewBox="0 0 2001 1841" fill="none" xmlns="http://www.w3.org/2000/svg">
<g opacity="0.8" filter="url(#filter0_f_116_61913)">
<g opacity="0.5">
<g style="mix-blend-mode:color-burn">
<path fill-rule="evenodd" clip-rule="evenodd" d="M884.736 751.41C799.089 736.479 716.126 860.317 638.764 820.651C579.759 790.398 609.565 684.839 639.668 625.758C667.241 571.641 735.018 556.002 788.382 526.997C818.046 510.875 852.446 510.396 881.989 494.053C915.344 475.601 932.937 428.397 970.979 425.984C1008.69 423.593 1032.51 466.186 1066.67 482.34C1117.79 506.519 1187.3 498.753 1220.94 544.207C1255.21 590.504 1252.72 657.257 1237.19 712.724C1221.57 768.517 1184.18 817.888 1135.51 849.333C1089.81 878.868 1029.2 899.675 978.505 879.881C928.098 860.198 938.045 760.704 884.736 751.41Z" fill="#FDB732"/>
</g>
<g style="mix-blend-mode:color-burn">
<path fill-rule="evenodd" clip-rule="evenodd" d="M787.878 985.695C736.449 941.16 759.408 856.578 752.386 788.91C747.345 740.323 753.086 694.179 752.56 645.333C751.884 582.549 704.189 504.951 748.853 460.822C794.237 415.981 872.846 457.63 936.352 463.744C979.118 467.86 1016.75 490.92 1059.71 490.746C1133.46 490.448 1214.52 419.641 1274.63 462.377C1328.7 500.822 1315.78 594.258 1292.89 656.532C1272.28 712.624 1197.97 725.491 1160.73 772.236C1134.5 805.17 1137.3 852.818 1110.61 885.385C1075.23 928.564 1036.57 972.266 983.261 988.834C919.774 1008.57 838.136 1029.22 787.878 985.695Z" fill="#18519F"/>
</g>
<g style="mix-blend-mode:color-burn">
<path fill-rule="evenodd" clip-rule="evenodd" d="M815.179 1105.93C767.236 1008.77 668.143 926.441 688.593 820.045C709.683 710.322 814.155 639.249 914.375 589.853C1007.26 544.071 1111.78 535.749 1211.93 562.105C1312.34 588.531 1394.7 650.719 1458.1 732.945C1533.55 830.797 1617.45 939.547 1596.93 1061.39C1575.3 1189.78 1466.88 1282.75 1354.44 1348.4C1241.65 1414.25 1103.34 1472.7 984.211 1419.14C871.728 1368.57 869.752 1216.53 815.179 1105.93Z" fill="#80DBFF"/>
</g>
<g style="mix-blend-mode:color-burn">
<path fill-rule="evenodd" clip-rule="evenodd" d="M656.735 400.189C820.837 393.771 944.362 551.507 974.175 713.06C995.951 831.061 860.33 892.701 759.665 957.957C682.575 1007.93 593.559 1059.23 515.915 1010.13C423.891 951.927 382.983 841.339 407.482 735.223C442.105 585.263 502.997 406.202 656.735 400.189Z" fill="#FC955A"/>
</g>
<g style="mix-blend-mode:color-burn">
<path fill-rule="evenodd" clip-rule="evenodd" d="M1103.82 1101.36C1101.57 1164.25 1018.5 1189.91 980.786 1240.28C941.49 1292.76 938.887 1380.81 877.446 1403.68C815.768 1426.64 751.633 1374.8 691.532 1347.97C644.014 1326.77 598.148 1302.27 563.413 1263.52C531.788 1228.24 518.321 1182.39 502.924 1137.58C488.103 1094.45 485.731 1050.34 474.935 1006.03C457.098 932.82 395.684 862.922 418.511 791.112C440.447 722.103 513.219 654.449 585.54 658.077C667.094 662.169 699.601 773.633 773.246 808.908C818.015 830.351 877.355 791.491 919.346 817.964C961.571 844.585 964.066 904.544 991.297 946.378C1026.73 1000.81 1106.14 1036.45 1103.82 1101.36Z" fill="#33C276"/>
</g>
<g style="mix-blend-mode:color-burn">
<path fill-rule="evenodd" clip-rule="evenodd" d="M1291.99 770.021C1349.47 769.142 1403.91 796.011 1439.78 840.931C1475.69 885.891 1477.61 943.345 1476.35 1000.87C1474.44 1088.72 1501.21 1194.54 1430.93 1247.29C1353.77 1305.21 1225.83 1307.85 1155.9 1241.39C1091.75 1180.44 1160.57 1077.58 1159.19 989.1C1158.41 938.59 1123.57 888.565 1149.76 845.365C1179.02 797.095 1235.55 770.884 1291.99 770.021Z" fill="#4D38B2"/>
</g>
</g>
</g>
<defs>
<filter id="filter0_f_116_61913" x="-300" y="-351" width="2647" height="2460" filterUnits="userSpaceOnUse" color-interpolation-filters="sRGB">
<feFlood flood-opacity="0" result="BackgroundImageFix"/>
<feBlend mode="normal" in="SourceGraphic" in2="BackgroundImageFix" result="shape"/>
<feGaussianBlur stdDeviation="200" result="effect1_foregroundBlur_116_61913"/>
</filter>
</defs>
</svg>
